# xmcd
#
# Track frame offsets:
#	150
#	18774
#	34048
#	48810
#	62077
#	78130
#	90670
#	107802
#	124778
#	146612
#	161715
#	177783
#	194944
#	213535
#
# Disc length: 3084 seconds
#
# Revision: 1
# Processed by: cddbd v1.5.2PL0 Copyright (c) Steve Scherf et al.
# Submitted via: audiograbber 1.83.01
#
DISCID=bc0c0a0e
DTITLE=WAGNER TISO - SANFONA Ã SINFÔNICA-CD-02-NA BATUTA DO SUCESSO
DYEAR=1900
DGENRE=MPB
TTITLE0=MILAGRE DOS PEIXES
TTITLE1=MEU BEM QUERER
TTITLE2=COMEÁRIA TUDO OUTRA VEZ
TTITLE3=SOL DE PRIMAVERA
TTITLE4=GOTA D`ÁGUA
TTITLE5=DENTRO DE MIM MORA UM ANJO
TTITLE6=CAÇADOR DE MIM
TTITLE7=TUDO QUE VOCÊ PODIA SER
TTITLE8=CÉU DE SANTO AMARO
TTITLE9=DESCAMINHOS
TTITLE10=ENCONTRO E DESPEDIDAS
TTITLE11=FEIRA MODERNA
TTITLE12=ESCRITO NAS ESTRELAS
TTITLE13=CORAÇÀO DE ESTUDANTE
EXTD=
EXTT0=
EXTT1=
EXTT2=
EXTT3=
EXTT4=
EXTT5=
EXTT6=
EXTT7=
EXTT8=
EXTT9=
EXTT10=
EXTT11=
EXTT12=
EXTT13=
PLAYORDER=
